<?xml version="1.0" encoding="UTF-8"?>
<!DOCTYPE svg PUBLIC "-//W3C//DTD SVG 1.1//EN" "http://www.w3.org/Graphics/SVG/1.1/DTD/svg11.dtd">
<!-- Creator: CorelDRAW -->
<svg xmlns="http://www.w3.org/2000/svg" xml:space="preserve" width="297mm" height="210mm" version="1.1" style="shape-rendering:geometricPrecision; text-rendering:geometricPrecision; image-rendering:optimizeQuality; fill-rule:evenodd; clip-rule:evenodd"
viewBox="0 0 29700 21000"
 xmlns:xlink="http://www.w3.org/1999/xlink"
 xmlns:xodm="http://www.corel.com/coreldraw/odm/2003">
 <defs>
  <style type="text/css">
   <![CDATA[
    .str2 {stroke:#373535;stroke-width:5.48;stroke-miterlimit:22.9256}
    .str0 {stroke:#373535;stroke-width:13.16;stroke-linejoin:round;stroke-miterlimit:22.9256}
    .str1 {stroke:#373535;stroke-width:6.58;stroke-linejoin:round;stroke-miterlimit:22.9256}
    .fil13 {fill:none}
    .fil0 {fill:white}
    .fil6 {fill:#E6E7E8}
    .fil11 {fill:#373535}
    .fil10 {fill:#F58735}
    .fil12 {fill:#EE3338}
    .fil3 {fill:#00B0F0}
    .fil2 {fill:#00A85A}
    .fil14 {fill:white;fill-rule:nonzero}
    .fil4 {fill:#373535;fill-rule:nonzero}
    .fil5 {fill:#EE3338;fill-rule:nonzero}
    .fil9 {fill:url(#id0)}
    .fil8 {fill:url(#id1)}
    .fil7 {fill:url(#id2)}
    .fil1 {fill:url(#id3)}
   ]]>
  </style>
  <linearGradient id="id0" gradientUnits="userSpaceOnUse" x1="11562.24" y1="5765.29" x2="11562.24" y2="6311.03">
   <stop offset="0" style="stop-opacity:1; stop-color:#F58735"/>
   <stop offset="0.6" style="stop-opacity:1; stop-color:#FABC25"/>
   <stop offset="1" style="stop-opacity:1; stop-color:#FFF215"/>
  </linearGradient>
  <linearGradient id="id1" gradientUnits="userSpaceOnUse" xlink:href="#id0" x1="11353.59" y1="5636.99" x2="11353.59" y2="6310.89">
  </linearGradient>
  <linearGradient id="id2" gradientUnits="userSpaceOnUse" xlink:href="#id0" x1="11131.77" y1="5743.91" x2="11131.77" y2="6311.03">
  </linearGradient>
  <radialGradient id="id3" gradientUnits="userSpaceOnUse" gradientTransform="matrix(1.71125 -0 -0 1.71125 -8355 -4471)" cx="11746.2" cy="6285.6" r="10341.84" fx="11746.2" fy="6285.6">
   <stop offset="0" style="stop-opacity:1; stop-color:white"/>
   <stop offset="0.301961" style="stop-opacity:1; stop-color:#7FD7F7"/>
   <stop offset="1" style="stop-opacity:1; stop-color:#00B0F0"/>
  </radialGradient>
 </defs>
 <g id="Capa_x0020_1">
  <metadata id="CorelCorpID_0Corel-Layer"/>
  <circle class="fil0" cx="11285.28" cy="6770.39" r="3050"/>
  <path class="fil1" d="M12896.41 5180.75c-410.45,-410.45 -977.5,-664.33 -1603.84,-664.33 -626.35,0 -1193.39,253.88 -1603.85,664.33 -410.45,410.46 -664.33,977.51 -664.33,1603.85 0,626.34 253.88,1193.39 664.33,1603.84 410.46,410.46 977.5,664.33 1603.85,664.33 626.34,0 1193.39,-253.87 1603.84,-664.33 410.46,-410.45 664.33,-977.5 664.33,-1603.84 0,-626.34 -253.87,-1193.39 -664.33,-1603.85z"/>
  <path class="fil2 str0" d="M10384.14 5406.76l-6.27 -9.42 -2.77 -8.42 12.06 -1.01 4.02 -17.07 12.05 -16.08 14.07 -13.06 3.01 -14.06 14.07 -16.08 29.13 -10.04 61.28 -19.09 99.46 -35.16 62.46 -16.7 48.32 -21.09 45.69 -36.02 79.43 -66.56 43.85 -49.57 55.3 -70.55 24.78 -13.35 17.16 -59.1 13.35 -61.01 5.93 -22.76 30.65 19.51 5.57 -27.87 -6.97 -22.29 -4.17 -18.11 1.39 -16.72 9.75 -6.96 -4.18 -18.11 -12.54 -11.15 -19.5 -12.54 -15.33 -19.5 -12.53 -15.32 -23.69 -16.72 -6.96 -9.76 8.36 -12.53 25.07 4.18 12.54 8.35 27.86 -2.78 16.72 -12.54 2.79 -13.93 20.89 6.96 20.9 9.76 18.11 13.93 11.15 12.54 12.54 2.78 8.36 -12.54 16.71 12.54 4.18 20.9 18.11 6.97 20.9 11.14 22.29 16.72 20.9 22.29 4.18 23.68 -1.39 12.54 25.07 19.5 -8.36 13.94 4.18 11.14 4.18 16.72 20.9 0 19.5 6.97 18.11 6.96 19.51 13.93 16.72 19.51 16.71 9.75 25.08 -4.18 15.32 13.93 6.97 19.5 -2.79 11.15 15.33 1.39 8.36 16.72 -2.79 19.51 -9.75 20.89 11.14 12.54 19.51 8.36 20.9 8.36 8.35 -6.97 19.51 -4.18 11.14 11.15 6.97 19.5 1.39 22.29 6.97 23.69 -9.75 16.71 -13.94 6.97 12.54 22.29 22.29 9.75 12.54 0 13.93 20.9 20.9 -2.79 12.54 -8.36 16.72 2.79 5.57 13.93 8.36 -19.5 25.07 8.36 19.51 5.57 12.54 0 5.57 9.75 23.68 -4.18 6.97 -8.36 16.72 0 15.32 -11.14 9.75 -9.75 16.16 8.2 10.88 -4.03 7.66 -9.27 9.27 -3.63c0,0 2.82,-20.96 4.83,-20.96 2.02,0 11.29,-2.42 11.29,-2.42l10.07 -9.26 5.24 8.86 5.24 8.87 10.48 -6.45 17.25 10.19 17.16 5.72 2.15 10.73 10.01 -3.58 11.44 10.73 2.86 16.44 12.87 -10.01 14.29 -5.72 11.44 0 9.3 7.15 10.01 -9.29 1.43 -13.59c0,0 8.58,-2.14 12.15,-2.14 3.58,0 16.45,1.43 16.45,1.43l1.43 -15.73 12.87 7.15 15.01 -4.29 10.01 13.58 20.74 2.15 2.14 10.01 15.02 3.57 0.71 15.01 9.3 0.72 0 10.72c0,0 5,8.58 9.29,7.15 4.29,-1.43 8.58,-12.86 8.58,-12.86l10.72 8.57 11.44 -5.72 0.72 15.02 9.29 -0.72 14.3 -6.43 7.87 5.72 -6.44 7.86 2.15 11.44 16.44 -11.44 5.72 5.72 2.15 17.88 8.58 3.57 5 -3.57 3.58 12.87 14.3 -10.01 5.72 10.01 1.43 11.44 -150.86 236.66 13.58 10.72 15.73 0 11.44 9.29 18.59 -2.14 10.72 -12.15 18.59 -2.15 14.3 16.44 15.73 6.44 7.15 28.6 15.73 6.43 17.16 25.74 16.45 13.59 -6.44 17.87 0.72 10.73 4.29 12.15 -15.02 -2.86 -10.72 -12.15 3.57 -7.87 -15.01 -9.29 -8.58 12.87 -7.15 11.44 -15.73 -15.02 -15.73 -7.86 7.15 -12.16 -7.87 -14.3 -15.01 -4.29 -14.3 2.15 -16.45 10.72 -2.86 -11.44 -10.01 10.01 -15.01 0.72 -2.14 -8.58 -8.58 9.29 -11.44 -4.29 -17.88 5.72 -16.44 28.6 -22.17 13.59 -30.03 0.71 -30.03 -5 -13.58 19.3 -20.02 -1.43 -17.16 1.43 -12.87 7.15 -15.73 9.29 -10.01 -8.57 -15.01 12.15 -17.88 -13.58 -12.15 6.43 -18.59 7.15 -14.3 19.3 -20.73 10.01 -22.88 17.16 -28.6 7.87 -20.02 16.44 -20.74 16.45 -27.88 15.73 -10.01 12.87 -20.73 2.14 -20.02 15.02 -15.73 9.29 2.14 21.45 -5 19.3 -16.45 26.46 0 27.88 -1.43 22.17 -19.3 20.02 -21.45 24.31 -8.58 22.87 -11.44 15.02 -4.29 19.3 6.43 25.74 18.59 28.6 5.72 14.3 -5.72 18.59 -20.73 19.3 -24.31 2.15 -27.17 13.59 -34.32 20.73 -22.88 23.59 -11.44 22.17 2.15 13.58 -7.15 15.02 -7.87 9.29 10.73 14.3 8.58 15.02 5.72 19.3 -15.73 4.29 -15.02 2.86 -7.15 10.01 -20.73 -5.72 3.58 14.3 1.42 12.87 -14.29 13.58 26.45 23.6 23.59 19.3 18.59 7.15 0 14.3 -5.72 10.73 -12.15 0 2.86 15.73 16.44 14.3 22.17 28.59 -0.72 20.02 5.72 10.01 6.44 19.31 20.02 14.3 11.44 14.3 14.29 1.43 -1.42 17.87 13.58 25.03 24.31 8.58 10.01 19.3 20.73 27.17 20.02 17.87 2.15 33.61 -16.45 15.73 -20.02 15.01 -7.15 17.16 -14.3 8.58 -3.57 7.15 106.53 0 12.87 10.01 37.89 9.29c0,0 29.32,1.43 33.61,2.86 4.29,1.43 14.3,10.73 14.3,10.73l6.43 20.02 3.58 11.44 -2.86 16.44 22.16 10.01 1.43 23.6 -5 15.01 1.43 7.87 176.6 2.14 13.58 -5 10.73 3.57 22.87 -10.72 14.3 -27.17 28.6 -2.15 24.31 -21.45 22.17 -21.45 13.58 -17.16 23.6 -12.87 14.3 -12.15 16.44 -2.14 -4.29 17.87 -16.44 10.01 -1.43 18.59 15.72 17.87 -6.43 14.3 -17.87 10.73 -1.43 265.25 15.73 -8.58 21.44 10.73 15.02 15.73 25.74 5.72 39.32 -17.88 37.18 -15.73 30.74 4.29 24.31 8.58 26.46 -7.15 195.9 355.35 -5.72 22.88 -10.72 10.72 0 14.3 -17.16 21.45 -13.59 26.46 0 30.74 -5 25.02 5 22.88 -9.29 42.19 -13.59 32.89 -9.29 15.01 -15.02 5 0.72 16.45 17.87 10.01 8.58 12.87 -6.43 14.3 -4.29 7.86 1.43 15.02 18.59 17.16 6.43 16.44 8.58 7.87 -5 20.02 -16.45 -1.43 -16.44 0.71 -1.43 26.46 -13.59 16.44 -18.58 22.16 -5.01 12.16 -18.59 0 1.43 27.17 -9.29 12.15 -16.45 3.58 -5 29.31 2.14 19.31 15.73 27.16 33.61 28.6 -0.72 10.73 -12.15 1.43 -12.16 12.87 -6.43 15.73 -3.58 12.87 -7.15 9.29 -21.45 24.31 29.32 121.55 27.17 17.16 27.88 2.86 10.01 -4.29 19.3 17.87 10.01 13.59 -19.3 17.87 -17.88 7.15 -11.43 25.74 1.42 16.44 2.86 8.58 -18.58 7.87 -19.31 10.72 -25.02 33.61 -11.44 16.44 -11.44 7.87 2.14 17.16 -12.15 9.29 -19.31 8.58 -15.01 6.44 -9.3 20.01 18.59 8.58 15.02 17.88 -2.15 28.6 -23.59 17.16 -18.59 13.58 -22.88 -3.57 -12.15 3.57 -2.15 25.74 4.29 27.17 8.58 13.58 -9.29 26.46 -17.88 23.59 -25.02 22.17 -20.74 2.86 -19.3 9.29 -27.17 -5.72 -15.73 3.58 -7.15 5.72 -40.75 -31.46 -25.74 -10.01 -22.88 -28.6 -13.59 -5.01 -18.59 -30.74 -20.02 -2.86 -20.73 -17.87 -21.45 -15.02 -13.58 -5.72 -10.73 -4.29 3.58 -17.16 -2.86 -31.46 -15.02 -35.75 -25.74 -17.87 -32.89 -12.16 -34.31 -10.72 -27.17 -29.31 -26.46 -4.29 -14.3 -15.73 -23.59 -17.16 -9.3 -20.74 -25.02 -20.02 -30.74 -10.01 -27.89 -2.14 -28.6 -20.02 -13.58 -9.3 -34.32 -10 -25.03 -17.88 -25.02 -2.14 -8.58 -17.88 -36.46 -11.44 -49.34 -14.3 -39.32 -25.02 -25.74 -16.45 -7.15 -19.3 -28.6 -10.01 -18.59 -14.3 -27.88 -0.72 -15.73 -17.87 -2.15 -6.43 -46.47 -21.45 -40.04 -23.6 -27.17 -13.58 -34.32 -16.45 -9.29 -10.72 4.29 -10.01 -8.58 -6.44 -10.73 -2.14 -0.71 -7.15 5 -5.72 -10.72 -12.16 -17.16 -7.86 -15.01 -17.87 -10.01 -15.02 -10.01 -13.58 -27.17 -20.74 -31.46 -17.16 -25.74 -21.45 -15.02 0.72 2.86 -15.73 -7.14 -20.02 -2.15 -13.59 -20.73 -12.87 -20.02 -16.44 10.01 -4.29 -4.29 -14.3 -25.74 -25.02 -5.01 10.01 -6.43 -5.01 2.14 -22.16 1.43 -23.6 -2.86 -13.58 -10.72 5 -12.16 -5.72 3.58 -15.01 13.58 -7.87 10.73 12.16 7.15 -21.45 10.01 -44.33 0 -37.89 -37.9 -46.48 -33.6 -45.75 -2.86 -32.89 -23.6 -15.73 -9.29 -27.89 -16.44 -25.02 -12.87 -7.87 -2.86 -13.58 5.72 -5.72 0 -11.44 -15.73 -15.73 -26.46 -15.73 -19.3 -13.58 2.14 -14.3 -21.45 -8.58 -8.58 9.29 -19.3 -11.44 6.43 -5 12.16 5 9.29 -10.72 0.72 -18.59 -12.87 -28.6 -0.72 -15.02 5.01 -7.15 -13.59 -18.59 -20.01 -31.45 -40.04 -27.89 -35.04 -15.73 0 -24.31 12.16 -2.86 -12.87 -32.17 -19.31 -50.05 -36.46 -47.9 -30.03 -52.91 -15.01 -24.31 -5.72 -18.59 -17.88 -17.87 2.86 -15.02 -14.3 -32.17 -0.71 -33.61 -25.03 -28.6 -12.87 -29.31 1.43 -17.87 -10.01 -5.01 0 -15.01 -8.58 -7.15 -10.01 -9.3 5.72 -5.72 -2.14 -12.15 -17.16 -5.01 -1.43 -18.59 -15.01 -10.01 0.71 -18.59 -7.86 -18.59 -20.74 -23.59 0.72 -12.16 5.72 -2.86 -5.72 -32.17 -27.89 -19.3 -13.58 -9.3 0 -7.86 8.58 0 0 -14.3 -20.74 -24.31 -16.44 -22.88 -22.17 -25.74 -37.17 -27.88 -17.16 -22.17 -12.16 -17.16 -3.57 -9.29 6.43 -5.01 -14.3 -17.16 -21.45 -32.17 -1.43 -36.46 -21.45 -22.17 -3.57 -21.45 -36.47 -33.6 -20.73 -22.17 -15.02 -29.31 -26.45 -22.17 -54.34 -30.02 -62.91 -29.32 -28.6 -11.44 -29.32 -22.16 -35.03 -23.6 -23.6 -15.73 -9.29 -33.6 15.73 -20.02 8.58 -7.15 17.16 10.01 17.87 -2.86 10.73 -20.02 -0.72 -36.46 -21.45 -35.04 -39.32 -29.31 -19.31 -18.59 7.15 -17.16 0 -12.87 24.31 -2.14 0 -17.88 -34.32 -41.47 -27.88 -30.74 8.58 -15.73 6.44 -18.59 -12.88 -10.01 4.29 -10.72 10.73 -8.58 -0.71 -31.46 23.59 -20.02 22.16 -22.88 27.17 -34.32 24.31 -15.02 11.44 -30.74 22.88 -17.16 25.02 -8.58 21.45 -30.03 21.45 0 22.17 -18.59 3.57 -15.73 13.59 11.44 -1.43 15.73 -7.15 1.43 10.72 10.73 0 13.58 7.87 22.17 -2.15 12.15 2.86 12.87 9.3 23.59 -17.88 13.59 -16.44 17.16 -16.45 -8.58 -13.58 0 -15.02 15.01 4.29 11.44 0 23.6 21.45 0.71 10.01 1.43 -8.58 15.73 -18.59 18.59 0 19.31 14.3 6.43 21.45 -8.58 19.31 -17.87 8.58 -17.88 16.44 0.72 15.73 10.72 16.45 12.16 20.01 4.29 14.3 19.3 18.59 -3.57 20.74 -10.73 20.73 17.16 10.73 4.29 3.57 20.73 17.16 35.04 15.73 27.17 9.29 3.57 1.44 5.72 19.3 10.73 17.16 -1.43 13.58 0 12.87 10.72 7.15 -9.29 2.86 -17.88c0,0 18.59,2.86 18.59,-0.71 0,-3.58 0,-21.45 0,-21.45l14.3 -31.46 15.73 -9.3 18.59 -0.71 9.29 -9.3 2.15 -24.3 8.58 -15.02 -10.01 -6.43 0 -16.45 13.58 -19.3 2.15 -26.46 6.43 -6.43 -5 -11.44 15.01 -23.6 9.3 -4.29 0 -20.73 13.58 -8.58 1.43 -13.58 0.72 -25.03 3.57 -16.44 5.01 -5.72 2.14 -25.74 12.16 -3.58 12.87 3.58 6.43 21.45 8.58 -4.29 7.67 -9.61z"/>
  <polygon class="fil3 str1" points="12394.22,8358.68 12410.46,8351.72 12419.74,8332.01 12411.62,8318.09 12428.07,8323.9 12440.58,8332.42 12439.45,8354.04 12429.02,8359.84 12429.02,8390 12411.62,8410.88 12424.38,8429.44 12441.77,8430.6 12458.01,8436.4 12464.97,8425.96 12468.45,8410.88 12459.17,8408.56 12447.57,8408.56 12447.57,8398.12 12464.97,8393.48 12487.01,8401.6 12509.05,8402.76 12509.05,8387.68 12525.29,8371.44 12525.29,8356.36 12503.25,8349.41 12480.05,8341.29 12467.29,8338.97 12458.01,8320.41 12470.77,8314.61 12475.41,8305.33 12488.17,8304.17 12488.17,8279.81 12469.61,8271.69 12438.3,8269.37 12424.38,8239.22 12403.5,8234.58 12400.02,8217.18 12382.62,8220.66 12377.98,8200.94 12372.18,8185.86 12355.94,8180.06 12338.54,8170.78 12321.15,8148.74 12303.75,8147.58 12292.15,8131.34 12285.19,8115.11 12277.07,8120.91 12272.43,8134.82 12266.63,8132.51 12263.15,8119.75 12261.99,8111.63 12243.43,8105.83 12241.11,8112.79 12228.35,8090.75 12220.24,8095.39 12212.12,8094.23 12194.72,8100.03 12216.76,8103.51 12226.03,8103.51 12232.99,8116.27 12244.59,8119.75 12255.03,8122.07 12257.35,8130.18 12244.59,8133.67 12239.95,8145.26 12231.83,8151.06 12236.47,8173.1 12257.35,8205.58 12270.11,8225.3 12265.47,8233.42 12253.87,8222.98 12249.23,8213.7 12246.91,8200.94 12232.99,8191.66 12232.99,8212.54 12224.87,8219.5 12210.96,8220.66 12208.64,8241.54 12213.28,8262.41 12238.79,8265.89 12259.67,8276.33 12260.83,8265.89 12250.39,8260.09 12255.03,8246.17 12265.47,8248.49 12265.47,8276.33 12284.03,8276.33 12286.35,8285.61 12313.03,8286.77 12337.38,8300.69 12326.21,8325.07 12319.99,8341.29 12333.9,8342.45 12350.14,8338.97 12348.98,8356.36 12369.86,8357.53 12377.98,8366.8 "/>
  <path class="fil4" d="M11292.57 3693.65c853.54,0 1626.28,345.97 2185.63,905.32 559.35,559.35 905.32,1332.09 905.32,2185.63 0,853.54 -345.97,1626.27 -905.32,2185.63 -559.35,559.35 -1332.09,905.32 -2185.63,905.32 -853.54,0 -1626.28,-345.97 -2185.63,-905.32 -559.35,-559.35 -905.32,-1332.09 -905.32,-2185.63 0,-853.54 345.97,-1626.28 905.32,-2185.63 559.35,-559.35 1332.09,-905.32 2185.63,-905.32zm2123.6 967.35c-543.47,-543.47 -1294.28,-879.62 -2123.6,-879.62 -829.32,0 -1580.13,336.14 -2123.6,879.62 -543.47,543.47 -879.62,1294.28 -879.62,2123.6 0,829.32 336.15,1580.13 879.62,2123.6 543.47,543.47 1294.28,879.62 2123.6,879.62 829.32,0 1580.13,-336.15 2123.6,-879.62 543.47,-543.48 879.62,-1294.28 879.62,-2123.6 0,-829.32 -336.15,-1580.13 -879.62,-2123.6z"/>
  <path class="fil4 str2" d="M11292.57 4472.56c638.45,0 1216.46,258.79 1634.86,677.18 418.39,418.4 677.18,996.41 677.18,1634.86 0,638.45 -258.79,1216.46 -677.18,1634.86 -418.4,418.39 -996.41,677.18 -1634.86,677.18 -638.45,0 -1216.46,-258.79 -1634.86,-677.18 -418.39,-418.4 -677.18,-996.41 -677.18,-1634.86 0,-638.45 258.79,-1216.46 677.18,-1634.86 418.4,-418.39 996.41,-677.18 1634.86,-677.18zm1603.84 708.19c-410.45,-410.45 -977.5,-664.33 -1603.84,-664.33 -626.35,0 -1193.39,253.88 -1603.85,664.33 -410.45,410.46 -664.33,977.51 -664.33,1603.85 0,626.34 253.88,1193.39 664.33,1603.84 410.46,410.46 977.5,664.33 1603.85,664.33 626.34,0 1193.39,-253.87 1603.84,-664.33 410.46,-410.45 664.33,-977.5 664.33,-1603.84 0,-626.34 -253.87,-1193.39 -664.33,-1603.85z"/>
  <path class="fil5" d="M8847.2 7049.07l-425.58 29.76 -7.8 -111.52 425.58 -29.76 7.8 111.52zm-162.07 -458.47l-71.64 -6.27 21.01 -240.09 169.3 14.82c15.37,24.9 27.75,60.02 37.14,105.5 9.28,45.47 11.99,90.88 8.02,136.23 -5.05,57.68 -18.75,107.22 -41.11,148.49 -22.46,41.27 -51.89,71.19 -88.51,89.73 -36.62,18.54 -75.27,26.03 -116.04,22.47 -44.23,-3.87 -82.55,-19.39 -114.79,-46.42 -32.32,-27.16 -55.66,-64.67 -69.9,-112.77 -11.06,-36.57 -14.23,-81.24 -9.62,-133.91 5.99,-68.47 21.76,-121.07 47.18,-157.54 25.54,-36.6 58.29,-58.72 98.34,-66.35l6.25 112c-21.56,6.01 -39.37,19.21 -53.32,39.6 -13.95,20.4 -22.32,46.59 -25.13,78.7 -4.26,48.69 4.23,88.39 25.47,119.25 21.32,30.86 55.3,48.2 102.11,52.29 50.36,4.41 89.53,-6.79 117.32,-33.74 27.77,-26.83 43.67,-63.88 47.8,-111.02 2.04,-23.38 0.53,-47.07 -4.44,-71.19 -4.98,-24 -11.83,-44.92 -20.35,-62.62l-53.93 -4.72 -11.16 127.56zm193.46 -302.7l-406.76 -116.63 30.82 -107.47 337.62 96.81 76.63 -267.24 69.13 19.82 -107.44 374.71zm130.28 -427.8l-376.68 -200.28 192.75 -362.52 63.76 33.91 -140.26 263.8 83.49 44.39 130.52 -245.47 63.41 33.72 -130.52 245.46 102.52 54.52 145.23 -273.14 63.5 33.76 -197.72 371.85zm101.11 -494.38l62.16 -89.71c25.9,12.68 50.32,15.36 73.24,8.05 22.77,-7.29 44.9,-24.04 66.33,-50.5 22.64,-27.96 35.21,-52.79 37.54,-74.3 2.34,-21.66 -2.55,-37.4 -14.75,-47.28 -7.87,-6.38 -16.95,-8.75 -27.3,-7.17 -10.34,1.41 -23.57,7.96 -39.67,19.64 -10.98,7.87 -34.59,27.24 -70.83,57.79 -46.61,39.41 -84.03,63.2 -112.18,71.44 -39.64,11.7 -72.58,6.93 -98.83,-14.32 -16.9,-13.69 -27.62,-32.66 -32.3,-57.02 -4.6,-24.31 -1.27,-51.31 9.92,-80.91 11.34,-29.64 30.29,-60.92 57.07,-93.99 43.82,-54.12 85.79,-87.33 126.16,-99.93 40.37,-12.44 76.29,-7.08 107.92,16.21l-67.42 89.25c-20.07,-10.1 -38.83,-12.03 -56.14,-5.8 -17.39,6.16 -35.95,21.5 -55.75,45.95 -20.45,25.26 -32.58,48.28 -36.07,69.02 -2.37,13.34 0.76,23.51 9.33,30.45 7.88,6.38 18.08,7.51 30.62,3.39 15.94,-5.17 44.94,-25.83 86.83,-61.93 41.96,-36.04 75.23,-60.86 99.81,-74.48 24.65,-13.55 48.66,-20.32 72.28,-20.28 23.53,0.14 45.76,8.68 66.67,25.62 18.99,15.38 31.31,36.63 36.71,63.74 5.48,27.16 2.17,56.51 -10.09,88.06 -12.18,31.62 -33.49,66.13 -63.76,103.51 -44.06,54.42 -87.55,88.39 -130.54,101.86 -42.99,13.47 -85.36,8.03 -126.96,-16.36zm439.53 -308.41l-290.95 -312.01 81.76 -76.25 290.96 312.01 -81.77 76.25zm549.92 -419.79l-99.71 69.82 -95.21 -51.68 -181.37 126.99 18.22 105.6 -97.18 68.04 -67.99 -473.2 96.86 -67.83 426.38 222.26zm-265.48 -20.13l-153.35 -85.91 29.55 172.59 123.8 -86.68zm874.27 -216.27l-51.99 -423.44 407.51 -50.03 8.8 71.67 -296.54 36.41 11.52 93.86 275.94 -33.88 8.75 71.28 -275.94 33.88 14.16 115.25 307.03 -37.7 8.77 71.38 -418.01 51.32zm622.44 -49.28l-190.46 -430.01 121.32 2.12 134.51 318.16 141.14 -313.35 118.61 2.07 -205.73 423.1 -119.39 -2.09zm777.3 124.02l-119.07 -25.31 -27.14 -104.88 -216.56 -46.03 -64.81 85.34 -116.04 -24.67 299.72 -372.44 115.66 24.58 128.24 463.41zm-166.34 -207.89l-41.75 -170.74 -106.07 139.32 147.82 31.42zm197.82 236.69l187.02 -383.44 97.82 47.71 78.87 355.42 124.88 -256.05 93.41 45.56 -187.02 383.45 -100.94 -49.24 -78.66 -347.91 -121.96 250.06 -93.42 -45.56zm769.52 277l44.28 -56.67 189.91 148.37 -104.63 133.93c-29.26,-0.67 -65.46,-9.42 -108.71,-26.32 -43.19,-16.98 -82.75,-39.44 -118.62,-67.47 -45.62,-35.64 -79.71,-74.12 -102.15,-115.35 -22.38,-41.31 -31.43,-82.29 -27.04,-123.1 4.39,-40.81 19.16,-77.3 44.35,-109.55 27.34,-34.99 61.23,-58.68 101.45,-71 40.39,-12.31 84.55,-11.45 132.65,2.8 36.69,10.64 75.89,32.31 117.55,64.86 54.16,42.32 89.68,84.19 106.42,125.38 16.79,41.35 17.5,80.86 2.09,118.6l-97.34 -55.75c6.71,-21.36 5.34,-43.48 -4.17,-66.29 -9.51,-22.8 -26.91,-44.09 -52.32,-63.94 -38.51,-30.08 -76.43,-44.59 -113.87,-43.58 -37.5,1.08 -70.55,20.13 -99.47,57.15 -31.13,39.84 -43.07,78.79 -35.6,116.77 7.37,37.9 29.78,71.42 67.07,100.56 18.5,14.45 39.19,26.08 62.13,35.05 22.83,8.89 44.11,14.54 63.6,17.04l33.33 -42.66 -100.91 -78.83zm142.02 337.62l331.55 -268.48 258.38 319.07 -56.12 45.45 -188.02 -232.19 -73.49 59.51 174.95 216.05 -55.81 45.19 -174.95 -216.05 -90.24 73.07 194.67 240.41 -55.88 45.26 -265.04 -327.29zm294.37 390.48l377.02 -192.1 50.76 99.61 -312.95 159.46 126.21 247.71 -64.07 32.65 -176.97 -347.33zm195.57 396.45l403.37 -138.9 36.4 105.71 -403.38 138.89 -36.39 -105.7zm294.28 496.07l-5.26 111.37c-48.91,-7.44 -88.11,-27.94 -117.72,-61.59 -29.49,-33.55 -49.98,-79.61 -61.32,-137.96 -14.03,-72.15 -6.55,-135.21 22.35,-189.04 28.99,-53.85 76.44,-87.24 142.25,-100.03 69.72,-13.55 128.39,-0.66 176.08,38.55 47.59,39.22 78.83,96.86 93.64,173.06 12.92,66.45 8.31,123.44 -13.94,170.85 -13.02,28.28 -35.17,51.76 -66.3,70.68l-41.13 -104.84c20.49,-10.68 35.07,-27.31 43.66,-50.26 8.62,-22.82 10.04,-48.85 4.38,-77.96 -7.83,-40.25 -25.31,-70.87 -52.52,-91.6 -27.1,-20.74 -65.61,-26.26 -115.53,-16.55 -52.95,10.29 -88.3,29.9 -105.9,59.07 -17.73,29.06 -22.69,63.39 -15.01,102.88 5.68,29.24 17.67,52.92 36.09,71.15 18.32,18.24 43.77,28.93 76.18,32.22zm-136.28 700.95l2.12 -121.71 97.77 -46.65 3.87 -221.37 -96.14 -47.33 2.07 -118.62 422.8 223.15 -2.07 118.22 -430.42 214.31zm172.33 -202.95l159.63 -73.56 -157 -77.54 -2.63 151.1z"/>
  <path class="fil5" d="M9336.26 8872.41l268.48 -331.54 139.4 112.88c52.81,42.76 85.91,72.38 99.25,88.68 20.65,24.9 32.65,52.51 35.78,82.65 3.13,30.15 -5.99,58.42 -27.31,84.74 -16.5,20.38 -35.19,33.62 -56,39.65 -20.87,6.11 -41.81,7.17 -63.08,3.11 -21.1,-4.05 -40.39,-10.98 -57.68,-20.77 -23.31,-13.63 -54.68,-36.35 -94.07,-68.24l-56.62 -45.85 -101.26 125.05 -86.89 -70.36zm309.92 -205.07l-76.13 94.03 47.49 38.46c34.28,27.75 58.6,44.64 72.94,50.5 14.33,5.86 27.73,7.76 40.35,5.7 12.51,-2.13 22.76,-8.02 30.69,-17.83 9.76,-12.04 13.21,-25.73 10.37,-41.07 -2.81,-15.18 -10.53,-29.62 -23,-42.91 -9.17,-9.98 -29.45,-27.55 -60.72,-52.87l-41.99 -34.01zm168.98 565.57l200.29 -376.68 362.51 192.75 -33.9 63.76 -263.8 -140.26 -44.39 83.49 245.47 130.52 -33.72 63.41 -245.47 -130.52 -54.51 102.52 273.13 145.23 -33.76 63.5 -371.85 -197.72zm547.24 257.34l117.59 -410.09 226.34 64.9c56.89,16.31 97.1,31.87 120.77,46.62 23.68,14.74 40.63,33.76 50.72,57.01 10.08,23.35 11.6,47.04 4.65,71.29 -8.82,30.75 -27.9,52.86 -57.08,66.2 -29.15,13.24 -67.99,15.84 -116.2,7.6 20.29,17.18 36.22,34.15 47.75,50.99 11.54,16.85 25.51,44.83 42.03,84.08l42.13 98.67 -128.54 -36.86 -52.12 -111.56c-18.49,-39.82 -31.58,-65.27 -39.37,-76.49 -7.78,-11.22 -16.95,-19.95 -27.45,-26.37 -10.53,-6.33 -28.06,-13.01 -52.85,-20.12l-21.69 -6.22 -49.09 171.2 -107.59 -30.85zm175.46 -205.85l79.45 22.79c51.57,14.78 84.26,22.4 98.11,22.75 13.72,0.32 25.44,-2.62 35.1,-8.73 9.55,-6.15 16.2,-15.31 19.73,-27.62 3.97,-13.85 2.31,-26.31 -4.8,-37.54 -7.11,-11.24 -19.08,-20.46 -35.9,-27.76 -8.43,-3.35 -34.45,-11.33 -78.08,-23.84l-83.8 -24.02 -29.81 103.97zm472.22 -79.22l111.73 3.9 -8.06 230.9c-1.28,36.63 -0.69,60.51 1.64,71.42 4.15,17.64 15.13,32.04 32.68,43.19 17.67,11.25 42.1,17.37 73.29,18.46 31.7,1.1 55.84,-3.02 72.3,-12.49 16.46,-9.36 26.55,-21.33 30.28,-35.71 3.86,-14.48 6.25,-38.55 7.43,-72.3l8.23 -235.86 111.73 3.9 -7.82 223.95c-1.79,51.22 -6.01,87.26 -12.81,108.19 -6.79,20.93 -18.5,38.31 -35.24,52.34 -16.75,13.92 -38.93,24.78 -66.3,32.47 -27.49,7.69 -63.21,10.71 -107.02,9.18 -52.84,-1.84 -92.75,-7.91 -119.74,-18.29 -27,-10.39 -48.09,-23.35 -63.42,-38.89 -15.33,-15.54 -25.21,-31.69 -29.66,-48.35 -6.5,-24.67 -8.85,-60.83 -7.18,-108.58l7.94 -227.43zm1124.04 327.91l-119.88 21.14 -64.45 -87.07 -218.04 38.44 -28.12 103.4 -116.83 20.6 138.37 -457.6 116.45 -20.53 292.5 381.62zm-232.11 -130.43l-102.67 -142.67 -46.16 168.91 148.83 -26.24zm376.2 77.54l-180.29 -386.65 98.63 -46 325.85 162.39 -120.4 -258.19 94.2 -43.92 180.29 386.65 -101.78 47.46 -319.88 -157.82 117.58 252.15 -94.2 43.93zm965.16 -605.62l-94.6 76.61 -98.59 -44.91 -172.06 139.33 25.54 104.07 -92.2 74.66 -100.83 -467.31 91.9 -74.42 440.84 191.97zm-266.24 -1.55l-158.97 -75.01 41.52 170.11 117.45 -95.1z"/>
  <path class="fil4" d="M11066.07 6311.04l41.15 0c-36.99,-23.82 -114.14,-85.48 -112.46,-184.76 0.94,-55.43 27.63,-97.6 57.62,-145 39.59,-62.59 85.11,-134.53 82.3,-258.33l-0.49 -21.94 10.73 19.15c20.68,36.9 41.41,75.02 59.59,111.27 16.25,32.39 30.32,63.04 40.28,89.55 11.53,-18.08 24.05,-35.07 36.44,-51.88 49.47,-67.15 96.76,-131.33 66.54,-250.75l-5.55 -21.96 14.98 17.01c47.08,53.46 78.81,98.51 102.7,146.46 21.89,43.94 37.14,90.23 51.57,147.63 53.99,-81.94 108.6,-126.82 149.49,-160.42l0.19 -0.15 12.24 -10.11 -3.44 15.5c-13.79,62.18 -18.18,114.59 -13.72,163.23 4.45,48.55 17.76,93.49 39.36,140.77 20.91,45.76 19.18,95.54 3.78,140.8 -15.44,45.38 -44.7,86.29 -78.63,113.99 8.16,0.5 15.55,4.05 21.01,9.51l0.02 0.02c5.91,5.91 9.58,14.06 9.58,23.02l0 51.49c0,8.96 -3.67,17.11 -9.58,23.02l0 0.02c-5.9,5.91 -14.06,9.57 -23.03,9.57l-35.07 0c2.28,3.65 3.6,7.96 3.6,12.56l0 34.74c0,6.55 -2.68,12.51 -6.99,16.81 -4.31,4.31 -10.26,6.99 -16.81,6.99l-8.14 0 -45.66 265.63 -0.79 4.56 -4.61 0 -323.74 0 -4.61 0 -0.78 -4.56 -45.67 -265.63 -8.14 0c-6.55,0 -12.5,-2.68 -16.81,-6.99 -4.31,-4.3 -6.98,-10.26 -6.98,-16.81l0 -34.74c0,-4.6 1.32,-8.91 3.59,-12.56l-35.06 0c-8.98,0 -17.14,-3.66 -23.04,-9.57 -5.91,-5.91 -9.57,-14.06 -9.57,-23.04l0 -51.49c0,-8.97 3.66,-17.13 9.57,-23.04l0.02 0c5.91,-5.9 14.05,-9.57 23.02,-9.57z"/>
  <path class="fil6" d="M11618.74 6322c5.95,0 11.36,2.44 15.29,6.35 3.92,3.93 6.35,9.34 6.35,15.3l0 51.49c0,5.96 -2.43,11.37 -6.35,15.3l-0.01 -0.01c-3.93,3.92 -9.34,6.36 -15.28,6.36 -184.21,0 -368.47,0 -552.67,0 -5.95,0 -11.36,-2.44 -15.29,-6.36 -3.92,-3.93 -6.36,-9.34 -6.36,-15.29l0 -51.49c0,-5.95 2.44,-11.36 6.36,-15.29l-0.01 -0.01c3.93,-3.91 9.34,-6.35 15.3,-6.35 184.46,0 367.79,0 552.67,0z"/>
  <path class="fil6" d="M11118.7 6427.75c-2.47,0.53 -4.7,1.77 -6.43,3.5 -2.32,2.33 -3.77,5.54 -3.77,9.06l0 34.74c0,3.52 1.45,6.73 3.77,9.06 2.33,2.32 5.54,3.77 9.06,3.77l442.14 0c3.52,0 6.73,-1.45 9.06,-3.77 2.32,-2.33 3.77,-5.54 3.77,-9.06l0 -34.74c0,-3.52 -1.45,-6.73 -3.77,-9.06 -1.73,-1.73 -3.96,-2.97 -6.43,-3.5l-447.4 0z"/>
  <polygon class="fil6" points="11543.91,6499.37 11140.89,6499.37 11185.15,6758.08 11499.66,6758.08 "/>
  <path class="fil7" d="M11218.09 5970.23c-6.57,14.97 -12.12,30.93 -16.21,48.21 -9.3,36.2 -12.01,71.33 -9.77,104.86 4.79,71.68 32.17,135.94 65.76,187.74l-129.26 0c-18.69,-10.03 -124.83,-71.94 -122.92,-184.58 0.88,-52.34 26.8,-93.31 55.94,-139.36 38.11,-60.23 81.58,-128.97 83.99,-243.19 17.3,31.19 34.21,62.67 49.12,92.4 17.42,34.73 32.3,67.39 42.19,94.96 -7.22,13.08 -13.47,26.07 -18.84,38.96z"/>
  <path class="fil8" d="M11503.35 5920.12c-5.51,8.76 -10.99,17.91 -16.46,27.5 -30.92,47.48 -67.18,122.51 -74.66,198.82 -5.66,57.8 5.1,116.35 46.88,164.46l-185.7 0c-12.34,-15.69 -91.23,-123.2 -63.84,-275.77 0.78,-4.37 1.66,-8.66 2.64,-12.86 3.95,-15.57 9.15,-31.34 15.76,-47.28 16.36,-37.36 39.45,-68.7 62.08,-99.42 48.04,-65.21 94.08,-127.71 73.06,-238.58 38.78,45.71 66,85.64 86.98,127.75 22.77,45.72 38.27,94.13 53.26,155.38z"/>
  <path class="fil9" d="M11450.57 6046.78c-57.99,138.19 -5,228.2 17.05,257.24 2.06,2.36 4.2,4.7 6.42,7.02l128.73 0c37.02,-26.11 69.78,-69.1 86.23,-117.44 14.58,-42.83 16.28,-89.79 -3.35,-132.75 -22.1,-48.38 -35.72,-94.45 -40.3,-144.33 -4.2,-45.71 -0.77,-94.55 10.68,-151.23 -40.14,33.3 -91.02,78.55 -140.95,156.82 -9.82,12.73 -14.24,24.17 -18.51,30.69 -15.7,27.51 -31.16,58.62 -46,93.98z"/>
  <polygon class="fil10" points="11305.81,5527.41 11449.69,5527.41 11377.77,4597.76 "/>
  <polygon class="fil10" points="10971.94,5700.41 11082.16,5607.93 10429.5,4942.01 "/>
  <polygon class="fil10" points="10827.39,6047.55 10852.38,5905.86 9924.37,5815.25 "/>
  <polygon class="fil10" points="10939.8,6406.38 10867.86,6281.78 10098.72,6808.89 "/>
  <polygon class="fil10" points="11884.02,6283.87 11812.08,6408.47 12653.14,6811.01 "/>
  <polygon class="fil10" points="11901.12,5908.23 11926.11,6049.92 12829.14,5817.67 "/>
  <polygon class="fil10" points="11672.77,5609.48 11782.99,5701.96 12325.46,4943.59 "/>
  <path class="fil11" d="M10501.2 6671.74l-452.13 1044.39c-9.91,22.29 -35.27,63.19 28.4,74.13 135.4,23.26 362.7,40.52 559.12,12.93 207.64,-29.17 321.03,-12.23 448.54,68.37 14.05,18.58 36.77,33.94 57.51,33.4 20.74,-0.53 30.24,3.72 44.77,-8.75 67.12,-13.66 265.81,-36.37 462.29,-4.39 158.89,25.86 325.86,98.76 644.81,137.08 27.27,3.28 28.56,14.39 46.96,-53.76 18.41,-68.15 274.75,-1063.66 274.75,-1063.66 4.14,-16.54 -16.76,-38.04 -52.37,-45.48 -8.48,-19.85 -10.53,-29.12 -13.17,-42.62 -228.88,6.4 -326.08,-50.32 -426.74,-90.21 -167.42,-66.35 -337.9,-102.96 -611.83,-1.23 -171.24,-154.26 -360.7,-157.86 -526.05,-138.24 -129.87,15.41 -247.09,55.59 -442.78,41.76 -0.83,2.42 -7.56,17.11 -8.7,19.96 -25.16,-4.9 -26.4,2.2 -33.38,16.32z"/>
  <path class="fil12" d="M10102.86 7671.19l-4.76 94.98c94.66,14.75 196.18,20.41 296.31,23.13 226.4,6.13 359.32,-57.67 544.69,-12.03 51.61,12.7 103.6,32.56 164.53,73.41 0,0 15.78,-54.41 45.9,-52.87 30.12,1.54 35.37,73.85 35.37,73.85 150.75,-33.42 343.88,-31.34 487.89,-3.3 203.76,39.67 338.22,101.8 626.44,132.67l268.79 -1069.92 -24.11 -89.94 -276.78 1057.1 -1.21 4.61 -4.7 -0.54c-208.6,-24.32 -301.37,-53.07 -389.68,-80.44 -59.1,-18.31 -116.2,-36.01 -205.12,-51.32 -218.29,-37.6 -346.94,-13.33 -509.94,17.42l-8.06 1.55 -2.12 -1.76c-26.38,-23.08 -102.71,-79.66 -213.46,-108.46 -66.95,-17.41 -146.47,-24.64 -235.1,-8.11 -179.64,33.5 -355.84,18.63 -486.37,7.61 -41.37,-3.49 -78.16,-6.6 -108.51,-7.64zm2430.67 -833.53l-1191.5 405.45 -1.57 4.6 -0.57 1.66 -2.68 7.8 -0.6 1.76 -2.67 7.77 -0.64 1.86 -2.66 7.75 -0.67 1.96 -2.65 7.73 -0.71 2.06 -2.65 7.71 -0.74 2.17 -2.64 7.69 -0.78 2.27 -2.64 7.67 -0.81 2.38 -2.63 7.66 -0.86 2.49 -2.62 7.64 -0.9 2.61 -2.62 7.63 -0.93 2.72 -2.62 7.61 -0.98 2.84 -2.61 7.6 -1.02 2.96 -2.61 7.59 -1.06 3.09 -2.6 7.57 -1.11 3.21 -2.6 7.56 -1.15 3.35 -2.6 7.55 -1.2 3.48 -2.59 7.53 -1.25 3.62 -2.59 7.53 -1.29 3.76 -2.59 7.51 -1.34 3.9 -2.58 7.5 -1.4 4.05 -2.58 7.49 -1.45 4.21 -2.57 7.47 -1.51 4.36 -2.57 7.46 -1.56 4.52 -2.56 7.45 -1.62 4.68 -2.56 7.43 -1.67 4.85 -2.56 7.42 -1.73 5.02 -2.56 7.41 -1.79 5.19 -2.55 7.39 -1.85 5.37 -2.55 7.37 -1.91 5.56 -2.54 7.35 -1.99 5.75 -2.53 7.34 -2.05 5.93 -2.53 7.32 -2.12 6.14 -2.51 7.29 -2.19 6.34 -2.52 7.27 -2.26 6.54 -2.5 7.25 -2.34 6.75 -2.49 7.22 -2.41 6.98 -2.49 7.19 -2.49 7.19 -2.47 7.17 -2.57 7.42 -2.47 7.13 -2.65 7.66 -2.45 7.09 -2.73 7.9 -2.45 7.06 -2.81 8.14 -2.44 7.02 -2.9 8.39 -2.42 6.98 -2.99 8.65 -2.4 6.94c162.36,-30.63 291.59,-54.42 510.13,-16.78 89.51,15.42 146.99,33.24 206.48,51.67 87.15,27.01 178.68,55.36 383.01,79.45l275.77 -1053.24zm-1204.6 409.91l-1214.18 413.17c28.57,1.35 61.28,4.11 97.52,7.17 129.96,10.97 305.39,25.78 483.5,-7.44 90.39,-16.86 171.51,-9.48 239.82,8.28 105.33,27.39 180.26,79.55 211.76,105.6l2.77 -8.01 2.54 -7.34 2.78 -8.02 2.46 -7.12 2.78 -8.03 2.4 -6.92 2.78 -8.04 2.32 -6.71 2.78 -8.05 2.26 -6.51 2.78 -8.06 2.19 -6.32 2.79 -8.06 2.12 -6.13 2.78 -8.06 2.06 -5.95 2.79 -8.06 1.99 -5.77 2.79 -8.06 1.93 -5.59 2.78 -8.07 1.88 -5.42 2.78 -8.06 1.82 -5.25 2.78 -8.07 1.76 -5.08 2.78 -8.07 1.7 -4.92 2.78 -8.06 1.64 -4.76 2.79 -8.06 1.59 -4.61 2.78 -8.06 1.54 -4.46 2.78 -8.06 1.48 -4.31 2.78 -8.05 1.44 -4.17 2.77 -8.05 1.39 -4.02 2.77 -8.05 1.34 -3.89 2.77 -8.04 1.3 -3.76 2.77 -8.04 4.02 -11.66 1.2 -3.49 2.77 -8.04 3.92 -11.4 1.12 -3.25 2.77 -8.03 1.07 -3.13 2.76 -8.03 1.04 -3.01 2.76 -8.03 1 -2.89 2.76 -8.03 0.96 -2.79 2.76 -8.03 0.92 -2.67 2.76 -8.03 0.88 -2.57 2.77 -8.03 0.84 -2.47 2.76 -8.03 0.81 -2.36 2.77 -8.04 0.77 -2.26 2.77 -8.04 0.74 -2.17 2.76 -8.05 0.72 -2.07 2.76 -8.05 0.68 -1.98 2.77 -8.06 0.64 -1.88 2.77 -8.07 0.62 -1.8 2.77 -8.08 0.59 -1.71 2.77 -8.09 0.56 -1.62 2.78 -8.11 0.53 -1.53 2.78 -8.13 0.3 -0.87z"/>
  <path class="fil0" d="M11147.35 7774.35c119.34,-344.72 236.94,-690.03 355.77,-1034.92 -76.55,-63.86 -139.64,-97.53 -201.41,-116.28 -137.21,-41.66 -276.17,-28.3 -414.55,-4.92 -105.03,17.75 -221.11,37.37 -339.5,25.45l-439.55 1016.77c30.11,1.21 65.08,4.16 104.16,7.46 129.96,10.97 305.39,25.78 483.5,-7.44 90.39,-16.86 171.51,-9.48 239.82,8.28 105.33,27.39 180.26,79.55 211.76,105.6z"/>
  <path class="fil0" d="M12257.76 7890.9l276.22 -1054.95c-182.56,5.92 -309.37,-43.84 -394.43,-82.66 -96.46,-44.01 -196.13,-71.55 -302.97,-73.14 -85.43,-1.27 -189.62,13.72 -322.72,61.77l-0.01 0 -1.22 3.56c-118.47,343.58 -235.6,687.63 -354.49,1031.08 162.36,-30.63 291.59,-54.42 510.13,-16.78 89.51,15.42 146.99,33.24 206.48,51.67 87.15,27.01 178.68,55.36 383.01,79.45z"/>
  <path class="fil13" d="M11358.54 6837.11c-60.28,-50.29 -109.97,-76.81 -158.61,-91.58 -108.06,-32.81 -217.49,-22.29 -326.47,-3.87 -82.72,13.98 -174.14,29.43 -267.37,20.04"/>
  <path class="fil4" d="M11353.31 6843.41c-29.73,-24.8 -56.83,-43.73 -82.49,-58.28 -25.5,-14.45 -49.53,-24.55 -73.27,-31.76 -53.13,-16.13 -106.7,-21.61 -160.42,-20.79 -53.88,0.82 -108.12,8.02 -162.32,17.18 -41.44,7 -85.07,14.37 -130.29,18.84 -45.32,4.49 -92.02,6.02 -139.23,1.26l1.6 -16.32c46.02,4.63 91.66,3.13 136.03,-1.26 44.46,-4.39 87.91,-11.74 129.19,-18.71 54.77,-9.26 109.74,-16.53 164.83,-17.37 55.25,-0.85 110.44,4.82 165.36,21.5 24.91,7.56 50.05,18.11 76.62,33.17 26.42,14.97 54.3,34.45 84.86,59.94l-10.47 12.6z"/>
  <path class="fil4" d="M11341 6881.59c-29.78,-24.76 -57.15,-43.69 -83.18,-58.21 -25.88,-14.44 -50.45,-24.53 -74.79,-31.7l-0.03 0c-52.35,-15.67 -105.06,-20.99 -157.85,-20.16 -53.01,0.84 -106.37,7.92 -159.64,16.99 -43.37,7.51 -88.3,14.74 -134.56,18.89 -46.22,4.14 -93.37,5.15 -140.87,0.17l1.67 -16.33c46.44,4.87 92.56,3.89 137.79,-0.17 45.19,-4.05 89.9,-11.25 133.2,-18.75 53.84,-9.17 107.92,-16.32 162.15,-17.18 54.43,-0.86 108.79,4.63 162.8,20.8l0 0.01c25.42,7.49 51.08,18.03 78.09,33.1 26.86,14.99 55.06,34.48 85.7,59.94l-10.48 12.6z"/>
  <path class="fil4" d="M11328.7 6919.81c-29.89,-24.75 -57.53,-43.68 -83.93,-58.18 -26.27,-14.43 -51.36,-24.52 -76.26,-31.63l-0.07 -0.03c-51.49,-15.18 -103.36,-20.35 -155.32,-19.49 -52.13,0.86 -104.58,7.81 -156.91,16.8l0 0c-45.52,8.05 -91.86,15.15 -138.8,18.95 -47.03,3.8 -94.63,4.27 -142.53,-0.95l1.73 -16.32c46.73,5.09 93.35,4.62 139.52,0.88 46.26,-3.74 92.13,-10.77 137.25,-18.75l0.03 0c52.9,-9.09 106.09,-16.12 159.45,-16.99 53.52,-0.89 106.99,4.45 160.14,20.11l0 -0.02c26.01,7.43 52.22,17.96 79.67,33.04 27.33,15.02 55.82,34.51 86.51,59.92l-10.48 12.66z"/>
  <path class="fil4" d="M11316.43 6957.99c-29.91,-24.67 -57.83,-43.59 -84.67,-58.11 -26.72,-14.47 -52.35,-24.55 -77.77,-31.59l-0.1 -0.04c-50.63,-14.69 -101.67,-19.69 -152.79,-18.82 -51.27,0.88 -102.85,7.7 -154.26,16.62l0 -0.02c-47.63,8.59 -95.31,15.55 -142.97,18.99 -47.93,3.47 -96,3.42 -144.2,-2.03l1.8 -16.32c47.14,5.33 94.23,5.37 141.24,1.97 47.28,-3.42 94.36,-10.29 141.31,-18.75l0.06 -0.03c51.96,-9.01 104.27,-15.92 156.76,-16.81 52.61,-0.9 105.21,4.26 157.51,19.43l0.01 0c26.61,7.37 53.37,17.89 81.18,32.94 27.7,14.98 56.49,34.5 87.3,59.91l-10.41 12.66z"/>
  <path class="fil4" d="M11304.13 6996.18c-30,-24.65 -58.2,-43.58 -85.41,-58.09 -27.05,-14.41 -53.2,-24.48 -79.26,-31.49l-0.12 -0.03c-49.85,-14.23 -100.05,-19.08 -150.26,-18.19 -50.38,0.9 -101.06,7.6 -151.54,16.43l0 -0.01c-49.59,9.1 -98.58,15.91 -147.21,19.02 -48.84,3.14 -97.37,2.56 -145.86,-3.12l1.86 -16.32c47.54,5.57 95.1,6.13 142.97,3.06 48.05,-3.08 96.41,-9.8 145.35,-18.79l0.07 -0.03c51.01,-8.92 102.44,-15.7 154.1,-16.62 51.81,-0.92 103.59,4.08 155.01,18.76l0 0.01c27.08,7.29 54.33,17.8 82.6,32.87 28.15,15 57.24,34.52 88.11,59.88l-10.41 12.66z"/>
  <path class="fil4" d="M11291.83 7034.39c-30.09,-24.63 -58.57,-43.56 -86.15,-58.05 -27.53,-14.46 -54.2,-24.52 -80.74,-31.45l-0.16 -0.04c-48.98,-13.74 -98.35,-18.43 -147.73,-17.52 -49.5,0.92 -99.29,7.5 -148.84,16.25l0 -0.02c-51.58,9.62 -101.86,16.28 -151.42,19.06 -49.74,2.79 -98.73,1.7 -147.52,-4.21l1.92 -16.32c47.94,5.8 95.98,6.88 144.7,4.15 48.88,-2.75 98.51,-9.33 149.43,-18.82l0.06 -0.03c50.09,-8.85 100.62,-15.5 151.41,-16.44 50.92,-0.94 101.84,3.9 152.43,18.1l-0.01 0.01c27.72,7.25 55.51,17.74 84.11,32.76 28.6,15.02 58,34.54 88.91,59.85l-10.4 12.72z"/>
  <path class="fil4" d="M11279.55 7072.58c-30.11,-24.56 -58.86,-43.49 -86.88,-57.99 -27.88,-14.43 -55.11,-24.49 -82.28,-31.39l-0.13 -0.06c-48.12,-13.26 -96.67,-17.78 -145.23,-16.85 -48.64,0.93 -97.53,7.39 -146.15,16.05l0 -0.01c-53.55,10.13 -105.14,16.64 -155.63,19.09 -50.65,2.45 -100.09,0.83 -149.19,-5.3l1.99 -16.32c48.33,6.04 96.86,7.64 146.43,5.24 49.69,-2.41 100.57,-8.85 153.48,-18.86l0.09 -0.03c49.14,-8.76 98.79,-15.29 148.72,-16.25 49.95,-0.96 99.96,3.72 149.66,17.39l0.01 -0.03c28.25,7.18 56.62,17.67 85.74,32.74 28.98,15 58.68,34.54 89.72,59.86l-10.35 12.72z"/>
  <path class="fil4" d="M11267.25 7110.76c-30.13,-24.48 -59.16,-43.4 -87.62,-57.92 -28.37,-14.47 -56.11,-24.53 -83.76,-31.36l-0.16 -0.03c-47.34,-12.79 -95.03,-17.16 -142.67,-16.21 -47.89,0.95 -95.82,7.27 -143.37,15.82l0.01 0.02c-55.57,10.65 -108.51,17.02 -159.97,19.13 -51.42,2.12 -101.32,-0.03 -150.86,-6.41l2.06 -16.26c48.6,6.26 97.61,8.37 148.16,6.29 50.51,-2.08 102.64,-8.36 157.52,-18.88l0.1 0c48.31,-8.7 97.11,-15.12 146.03,-16.1 49.18,-0.97 98.39,3.54 147.23,16.73l0 0.01c28.85,7.13 57.72,17.6 87.13,32.6 29.36,14.98 59.35,34.53 90.51,59.85l-10.34 12.72z"/>
  <path class="fil4" d="M11254.95 7148.95c-30.22,-24.47 -59.53,-43.39 -88.37,-57.89 -28.76,-14.47 -57.03,-24.52 -85.23,-31.29l-0.19 -0.03c-46.48,-12.31 -93.34,-16.52 -140.15,-15.55 -47.01,0.97 -94.06,7.16 -140.67,15.63l0 0.02c-57.56,11.18 -111.8,17.4 -164.17,19.17 -52.32,1.78 -102.68,-0.89 -152.52,-7.5l2.12 -16.26c48.99,6.5 98.48,9.13 149.88,7.38 51.36,-1.74 104.76,-7.88 161.61,-18.92l0.1 0c47.37,-8.61 95.28,-14.91 143.33,-15.9 48.28,-1 96.64,3.35 144.64,16.06l0 0.01c29.42,7.07 58.82,17.53 88.64,32.52 29.81,15 60.1,34.55 91.32,59.83l-10.34 12.72z"/>
  <path class="fil4" d="M11242.68 7187.17c-30.32,-24.46 -59.91,-43.39 -89.11,-57.87 -29.12,-14.44 -57.93,-24.49 -86.78,-31.22l-0.19 -0.06c-45.61,-11.81 -91.64,-15.86 -137.61,-14.88 -46.11,0.99 -92.27,7.06 -137.95,15.45l0 0.02c-59.55,11.69 -115.11,17.76 -168.41,19.2 -53.22,1.44 -104.04,-1.76 -154.18,-8.59l2.18 -16.26c49.37,6.73 99.35,9.88 151.61,8.47 52.19,-1.42 106.83,-7.4 165.66,-18.95l0.09 0c46.44,-8.53 93.47,-14.71 140.68,-15.72 47.32,-1.01 94.75,3.16 141.85,15.34l0 -0.01c29.98,6.99 59.96,17.45 90.31,32.5 30.27,15.01 60.86,34.57 92.13,59.79l-10.28 12.79z"/>
  <path class="fil4" d="M11230.37 7225.35c-30.41,-24.43 -60.27,-43.37 -89.84,-57.83 -29.53,-14.44 -58.86,-24.48 -88.26,-31.15l-0.19 -0.03c-44.83,-11.35 -90.03,-15.25 -135.11,-14.25 -45.24,1.01 -90.51,6.96 -135.26,15.26l0 0.02c-61.55,12.21 -118.42,18.14 -172.59,19.24 -54.14,1.1 -105.41,-2.62 -155.88,-9.68l2.25 -16.26c49.76,6.97 100.21,10.64 153.31,9.56 53.06,-1.08 108.98,-6.93 169.76,-18.99l0.1 0c45.5,-8.45 91.64,-14.5 137.99,-15.53 46.53,-1.04 93.17,2.98 139.41,14.69l0 0.01c30.5,6.94 60.96,17.38 91.67,32.4 30.71,15.02 61.6,34.58 92.92,59.76l-10.28 12.78z"/>
  <path class="fil4" d="M11218.1 7263.54c-30.39,-24.34 -60.54,-43.27 -90.61,-57.77 -30,-14.47 -59.86,-24.51 -89.77,-31.12l-0.19 -0.03c-43.97,-10.86 -88.34,-14.6 -132.59,-13.57 -44.34,1.02 -88.71,6.84 -132.54,15.07l0.01 0.02c-63.55,12.72 -121.74,18.5 -176.83,19.27 -55.04,0.76 -106.76,-3.48 -157.54,-10.77l2.31 -16.26c50.14,7.21 101.08,11.4 155.04,10.64 53.9,-0.75 111.06,-6.45 173.81,-19.01l0.09 0c44.56,-8.37 89.82,-14.29 135.33,-15.35 45.64,-1.05 91.41,2.8 136.83,14.03l-0.01 0.01c31.12,6.88 62.12,17.31 93.18,32.29 31.04,14.98 62.22,34.56 93.7,59.76l-10.22 12.79z"/>
  <path class="fil4" d="M11205.8 7301.76c-30.49,-24.32 -60.91,-43.25 -91.35,-57.74 -30.4,-14.47 -60.78,-24.5 -91.25,-31.05l-0.2 -0.06c-43.1,-10.38 -86.63,-13.96 -130.05,-12.91 -43.53,1.04 -87.04,6.75 -129.97,14.9l0 -0.01c-65.64,13.26 -125.08,18.89 -180.94,19.31 -55.94,0.43 -108.11,-4.33 -159.21,-11.85l2.38 -16.26c50.52,7.44 101.95,12.15 156.76,11.73 54.87,-0.42 113.31,-5.96 177.9,-19.01l0.09 -0.04c43.62,-8.28 87.99,-14.09 132.61,-15.16 44.66,-1.07 89.51,2.62 134.03,13.31l0 -0.01c31.76,6.83 63.37,17.25 94.91,32.26 31.49,15 62.96,34.58 94.51,59.73l-10.22 12.86z"/>
  <path class="fil4" d="M11193.5 7339.94c-30.61,-24.32 -61.29,-43.25 -92.07,-57.71 -30.76,-14.44 -61.69,-24.47 -92.79,-30.98l-0.19 -0.03c-42.32,-9.91 -85.01,-13.33 -127.52,-12.27 -42.63,1.06 -85.25,6.65 -127.25,14.72l0 -0.02c-67.63,13.78 -128.39,19.26 -185.15,19.35 -56.85,0.09 -109.49,-5.19 -160.91,-12.94l2.45 -16.26c50.91,7.68 102.82,12.91 158.46,12.82 55.71,-0.09 115.42,-5.49 181.97,-19.05l0.1 -0.03c42.68,-8.2 86.16,-13.88 129.94,-14.97 43.91,-1.1 87.98,2.43 131.64,12.65l0 0.01c32.19,6.76 64.26,17.16 96.19,32.16 31.99,15.03 63.78,34.61 95.34,59.7l-10.21 12.85z"/>
  <g>
   <path class="fil4" d="M11181.23 7378.13c-30.6,-24.23 -61.58,-43.16 -92.84,-57.65 -31.22,-14.47 -62.69,-24.5 -94.3,-30.94l-0.16 -0.04c-41.46,-9.42 -83.33,-12.68 -125.02,-11.6 -41.76,1.08 -83.49,6.54 -124.56,14.53l0 -0.01c-69.64,14.29 -131.69,19.63 -189.33,19.38 -57.78,-0.24 -110.86,-6.05 -162.6,-14.03l2.51 -16.26c51.28,7.91 103.68,13.67 160.16,13.91 56.58,0.24 117.56,-5.01 186.08,-19.08l0.1 -0.04c41.73,-8.11 84.33,-13.67 127.25,-14.78 42.98,-1.11 86.18,2.25 129.01,11.99 32.81,6.7 65.43,17.09 97.74,32.07 32.32,14.98 64.39,34.58 96.11,59.69l-10.15 12.86zm-183.7 -104.62l0 0 0 0z"/>
  </g>
  <path class="fil4" d="M11168.92 7416.31c-30.68,-24.2 -61.94,-43.14 -93.57,-57.61 -31.54,-14.43 -63.54,-24.44 -95.78,-30.85l-0.19 -0.03c-40.69,-8.96 -81.72,-12.06 -122.5,-10.97 -40.86,1.1 -81.69,6.44 -121.83,14.35l0 -0.02c-71.64,14.81 -135,20 -193.54,19.42 -58.5,-0.58 -112.07,-6.92 -164.26,-15.15l2.5 -16.19c51.54,8.12 104.38,14.38 161.89,14.95 57.46,0.57 119.72,-4.53 190.2,-19.11l0.06 -0.03c40.8,-8.04 82.51,-13.47 124.6,-14.6 42.16,-1.13 84.51,2.06 126.41,11.29l0 0c33.31,6.63 66.45,17.03 99.25,32.04 32.77,14.99 65.14,34.6 96.91,59.66l-10.15 12.85z"/>
  <path class="fil4" d="M11156.62 7454.53c-30.77,-24.18 -62.3,-43.12 -94.31,-57.58 -32.02,-14.46 -64.54,-24.47 -97.29,-30.81l-0.16 -0.04c-39.83,-8.47 -80.02,-11.41 -119.97,-10.29 -39.99,1.11 -79.93,6.33 -119.14,14.15l-0.01 -0.01c-73.64,15.33 -138.3,20.36 -197.74,19.45 -59.42,-0.92 -113.45,-7.78 -165.96,-16.24l2.57 -16.19c51.91,8.36 105.24,15.14 163.59,16.04 58.31,0.9 121.83,-4.05 194.27,-19.14l0.07 -0.04c39.85,-7.95 80.68,-13.26 121.9,-14.41 41.23,-1.15 82.68,1.88 123.71,10.6 33.98,6.58 67.71,16.96 100.9,31.96 33.21,15 65.88,34.62 97.72,59.63l-10.15 12.92z"/>
  <path class="fil4" d="M11144.35 7492.71c-30.83,-24.14 -62.65,-43.08 -95.08,-57.55 -32.4,-14.45 -65.46,-24.45 -98.81,-30.74l-0.13 -0.03c-38.95,-7.99 -78.33,-10.77 -117.46,-9.63 -39.23,1.14 -78.25,6.21 -116.39,13.92l0 0.01c-75.67,15.87 -141.66,20.76 -202.01,19.5 -60.32,-1.25 -114.8,-8.64 -167.63,-17.33l2.63 -16.19c52.29,8.6 106.11,15.91 165.32,17.14 59.17,1.23 123.94,-3.58 198.35,-19.18l0.07 0c39.03,-7.89 78.98,-13.09 119.21,-14.26 40.29,-1.17 80.86,1.7 121.06,9.93l0 -0.01c34.53,6.51 68.82,16.89 102.47,31.9 33.61,15 66.57,34.61 98.49,59.61l-10.09 12.91z"/>
  <path class="fil4" d="M11132.04 7530.9c-29.92,-23.35 -60.97,-41.85 -92.73,-56.13 -33.81,-15.2 -68.45,-25.64 -103.4,-32.06l-0.1 0c-38.19,-7.53 -76.73,-10.15 -114.96,-9 -38.35,1.15 -76.47,6.11 -113.7,13.74l0 0.01c-77.67,16.39 -144.96,21.13 -206.19,19.53 -61.24,-1.59 -116.16,-9.49 -169.33,-18.41l2.7 -16.19c52.66,8.83 106.97,16.66 167.01,18.22 60.04,1.56 126.1,-3.1 202.47,-19.21l0.03 0c38.09,-7.81 77.16,-12.89 116.55,-14.07 39.51,-1.2 79.27,1.51 118.57,9.25l0 0.01c36.17,6.66 72.02,17.47 107.03,33.21 32.94,14.81 65.13,33.99 96.14,58.18l-10.09 12.92z"/>
  <path class="fil4" d="M11119.74 7569.12c-30.09,-23.39 -61.42,-41.91 -93.49,-56.16 -34.19,-15.18 -69.36,-25.6 -104.89,-31.97l-0.07 0c-35.78,-6.74 -71.92,-9.29 -107.8,-8.46 -39.01,0.91 -77.83,5.82 -115.64,13.69l0 0c-79.67,16.91 -148.27,21.5 -210.4,19.57 -62.17,-1.93 -117.53,-10.35 -171.02,-19.5l2.76 -16.19c53.03,9.07 107.84,17.41 168.71,19.31 60.9,1.89 128.22,-2.63 206.54,-19.25l0.04 0c38.68,-8.04 78.51,-13.08 118.69,-14.01 37.02,-0.86 74.27,1.76 111.14,8.71l0 0.01c36.72,6.59 73.12,17.38 108.56,33.12 33.44,14.85 65.94,34.04 96.96,58.15l-10.09 12.98z"/>
  <path class="fil4" d="M11107.47 7607.3c-30.1,-23.31 -61.72,-41.83 -94.28,-56.11 -34.57,-15.16 -70.27,-25.57 -106.39,-31.88l-0.03 -0.04c-35.2,-6.32 -70.8,-8.68 -106.15,-7.77 -37.86,0.99 -75.5,5.76 -112.11,13.49l0.01 0c-81.68,17.43 -151.58,21.87 -214.61,19.6 -63.02,-2.27 -118.83,-11.21 -172.65,-20.59l2.76 -16.19c53.4,9.3 108.7,18.17 170.47,20.4 61.75,2.22 130.33,-2.15 210.62,-19.28l0.03 0c37.46,-7.91 76.09,-12.8 115.1,-13.81 36.38,-0.94 73.06,1.5 109.38,8.02l0.01 -0.03c37.29,6.52 74.23,17.31 110.11,33.04 33.78,14.82 66.56,34.02 97.75,58.17l-10.02 12.98z"/>
  <path class="fil4" d="M11095.17 7645.49c-58.53,-45.16 -123.62,-72.43 -190.42,-85.59 -75.3,-14.84 -152.78,-11.75 -225.57,3.86 -83.67,17.94 -154.87,22.24 -218.78,19.63 -63.95,-2.61 -120.2,-12.07 -174.35,-21.68l2.83 -16.19c53.77,9.54 109.56,18.93 172.16,21.49 62.63,2.55 132.48,-1.67 214.74,-19.31 74.83,-16.05 154.56,-19.21 232.12,-3.93 69.15,13.62 136.57,41.9 197.29,88.74l-10.02 12.98z"/>
  <path class="fil4" d="M11292.49 7652.1c0.69,-0.18 235.93,-63.55 458.08,-4.61 64.53,17.12 107.26,29.66 140.98,39.55 80.87,23.73 109.57,32.15 265.39,52.5l-2.12 16.26c-157.19,-20.53 -186.18,-29.04 -267.9,-53.01 -33.6,-9.86 -76.19,-22.36 -140.53,-39.43 -217.94,-57.82 -449.05,4.44 -449.72,4.61l-4.18 -15.87z"/>
  <path class="fil4" d="M11305.34 7613.92c0.68,-0.19 235.82,-65.5 457.8,-4.99 60.11,16.39 100.99,28.46 133.45,38.04 87.69,25.89 114.09,33.69 271.01,53.69l-2.06 16.25c-158.38,-20.18 -185.04,-28.05 -273.58,-54.2 -32.9,-9.71 -74.34,-21.95 -133.12,-37.97 -217.53,-59.3 -448.53,4.86 -449.19,5.05l-4.31 -15.87z"/>
  <path class="fil4" d="M11318.19 7575.76c0.68,-0.19 235.82,-67.47 457.52,-5.42l0 0.01c54.92,15.37 93.7,26.92 124.83,36.19 95.51,28.43 119.44,35.56 277.71,55.21l-1.99 16.32c-159.56,-19.81 -183.77,-27.02 -280.41,-55.79 -31.73,-9.45 -71.25,-21.22 -124.54,-36.13l-0.03 0c-217.22,-60.8 -447.99,5.23 -448.66,5.42l-4.43 -15.81z"/>
  <path class="fil4" d="M11331.03 7537.61c0.68,-0.19 235.81,-69.45 457.22,-5.86 48.15,13.83 84.98,24.91 115.01,33.94 104.71,31.5 126.09,37.93 285.65,57.18l-1.93 16.32c-160.96,-19.42 -182.56,-25.92 -288.41,-57.76 -29.69,-8.93 -66.09,-19.88 -114.82,-33.87 -216.93,-62.3 -447.49,5.6 -448.15,5.79l-4.57 -15.74z"/>
  <path class="fil4" d="M11343.88 7499.43c0.68,-0.21 235.7,-71.4 456.94,-6.24 41.02,12.08 75.27,22.51 103.77,31.19 115.25,35.08 133.91,40.77 294.97,59.6l-1.86 16.33c-162.32,-18.99 -181.21,-24.74 -297.87,-60.26 -27.2,-8.28 -59.87,-18.23 -103.64,-31.12 -216.52,-63.77 -446.96,6.04 -447.62,6.24l-4.69 -15.74z"/>
  <path class="fil4" d="M11356.76 7461.28c0.68,-0.21 235.66,-73.37 456.6,-6.68 34.13,10.3 64.83,19.78 91,27.86 127.54,39.37 143.43,44.27 305.85,62.65l-1.79 16.32c-163.9,-18.54 -179.96,-23.5 -308.88,-63.29 -24.39,-7.53 -53,-16.36 -90.87,-27.8 -216.25,-65.28 -446.49,6.41 -447.16,6.61l-4.75 -15.67z"/>
  <path class="fil4" d="M11369.6 7423.1c0.68,-0.22 235.56,-75.32 456.33,-7.05 31.38,9.7 55.39,17.23 76.34,23.8 141.73,44.43 154.74,48.51 318.6,66.38l-1.74 16.32c-165.52,-18.05 -178.66,-22.17 -321.74,-67.02 -23.05,-7.23 -49.23,-15.44 -76.28,-23.8 -215.83,-66.75 -445.96,6.83 -446.63,7.04l-4.88 -15.67z"/>
  <path class="fil4" d="M11382.44 7384.94c0.68,-0.22 235.56,-77.3 456.06,-7.48 8.29,2.62 35.67,11.35 59.61,18.99 157.9,50.36 167.96,53.57 333.41,70.9l-1.67 16.32c-167.03,-17.5 -177.19,-20.74 -336.69,-71.61 -11.75,-3.74 -23.82,-7.6 -59.61,-18.93 -215.52,-68.24 -445.43,7.21 -446.09,7.43l-5.02 -15.62z"/>
  <path class="fil4" d="M11395.29 7346.76c0.68,-0.23 235.44,-79.25 455.75,-7.86 23.96,7.76 32.97,10.69 40.42,13.11 176.76,57.44 183.8,59.73 350.72,76.46l-1.61 16.32c-168.79,-16.91 -175.89,-19.22 -354.18,-77.16l-40.36 -13.12c-215.13,-69.71 -444.93,7.64 -445.6,7.86l-5.14 -15.61z"/>
  <path class="fil4" d="M11408.17 7308.61c0.68,-0.23 235.37,-81.21 455.44,-8.27l18.33 6.08c198.3,65.77 202.28,67.09 370.89,83.17l-1.54 16.32c-170.39,-16.25 -174.41,-17.58 -374.49,-83.94l-18.33 -6.08c-214.78,-71.19 -444.43,8.04 -445.09,8.27l-5.21 -15.55z"/>
  <path class="fil4" d="M11420.98 7270.46c0.68,-0.24 235.39,-83.21 455.2,-8.71 108.32,36.72 163.16,55.19 211.72,66.32 48.53,11.12 91.33,15.04 175.58,22.64l-1.48 16.32c-85.09,-7.68 -128.33,-11.64 -177.77,-22.97 -49.41,-11.32 -104.51,-29.88 -213.32,-66.76 -214.46,-72.69 -443.87,8.41 -444.53,8.64l-5.4 -15.48z"/>
  <path class="fil4" d="M11433.86 7232.27c0.68,-0.24 235.25,-85.15 454.86,-9.08 213.76,74.05 221.97,74.75 380.87,88.23l4.52 0.38 -1.35 16.38 -4.52 -0.38c-160.65,-13.62 -168.94,-14.33 -384.85,-89.12 -214.09,-74.16 -443.4,8.84 -444.07,9.08l-5.46 -15.49z"/>
  <path class="fil4" d="M11446.71 7194.12c0.68,-0.25 235.24,-87.14 454.58,-9.52 211.12,74.72 224.98,75.81 373.97,87.57l9.5 0.75 -1.29 16.38 -9.49 -0.75c-150.92,-11.9 -164.96,-13.01 -378.15,-88.46 -213.77,-75.65 -442.87,9.21 -443.54,9.45l-5.58 -15.42z"/>
  <path class="fil4" d="M11459.55 7155.97c0.68,-0.25 235.19,-89.11 454.31,-9.92 208.83,75.47 227.76,76.84 368.38,87.04l13.14 0.95 -1.16 16.38 -13.14 -0.95c-142.57,-10.34 -161.77,-11.73 -372.81,-88 -213.41,-77.13 -442.34,9.61 -443,9.85l-5.72 -15.35z"/>
  <path class="fil4" d="M11472.4 7117.78c0.68,-0.25 235.12,-91.08 454,-10.32 207.01,76.37 230.55,77.92 363.85,86.67l15.75 1.03 -1.02 16.39 -15.76 -1.04c-135.39,-8.89 -159.3,-10.46 -368.48,-87.63 -213.07,-78.61 -441.83,10.01 -442.5,10.26l-5.84 -15.36z"/>
  <path class="fil4" d="M11485.27 7079.63c0.68,-0.26 235.06,-93.05 453.7,-10.73 205.44,77.34 233.21,78.96 360.19,86.36l17.46 1.02 -0.89 16.38 -17.46 -1.02c-129.08,-7.51 -157.31,-9.16 -365.08,-87.39 -212.73,-80.08 -441.34,10.42 -442,10.67l-5.92 -15.29z"/>
  <path class="fil4" d="M11498.12 7041.48c0.68,-0.27 234.98,-95.01 453.39,-11.13 204.18,78.41 235.89,80.01 357.28,86.12l18.46 0.93 -0.78 16.39 -18.45 -0.94c-123.43,-6.21 -155.67,-7.83 -362.36,-87.21 -212.38,-81.57 -440.84,10.81 -441.5,11.07l-6.04 -15.23z"/>
  <path class="fil4" d="M11510.96 7003.3c0.68,-0.28 234.94,-96.99 453.12,-11.54 203.32,79.63 238.68,81.11 354.98,85.97l18.84 0.8 -0.71 16.38c-7.32,-0.32 -13.14,-0.56 -18.77,-0.8 -118.49,-4.95 -154.51,-6.46 -360.32,-87.06 -212.02,-83.04 -440.31,11.21 -440.97,11.48l-6.17 -15.23z"/>
  <path class="fil4" d="M11523.81 6965.15c0.67,-0.28 234.87,-98.97 452.8,-11.96 202.64,80.91 241.46,82.18 353.23,85.83l18.65 0.62 -0.51 16.39 -18.66 -0.62c-113.89,-3.72 -153.46,-5.02 -358.75,-86.99 -211.67,-84.51 -439.8,11.62 -440.46,11.89l-6.3 -15.16z"/>
  <path class="fil4" d="M11536.69 6927c0.68,-0.29 234.84,-100.96 452.5,-12.4 202.3,82.32 244.36,83.28 351.87,85.74l18.05 0.42 -0.38 16.39 -17.99 -0.43c-109.8,-2.5 -152.76,-3.49 -357.72,-86.89 -211.38,-86 -439.31,11.98 -439.97,12.26l-6.36 -15.09z"/>
  <path class="fil4" d="M11549.53 6888.81c0.68,-0.29 234.75,-102.92 452.23,-12.76 202.12,83.79 247.32,84.35 350.94,85.62 5.49,0.06 11.15,0.13 17,0.21l-0.19 16.39c-5.85,-0.08 -11.51,-0.16 -17,-0.22 -105.89,-1.3 -152.08,-1.87 -357.05,-86.84 -210.98,-87.46 -438.78,12.42 -439.44,12.7l-6.49 -15.1z"/>
  <path class="fil4" d="M11562.41 6850.66c0.68,-0.29 234.66,-104.88 451.88,-13.17 202.21,85.38 250.42,85.42 350.38,85.5 5.06,0 10.27,0.01 15.62,0.02l0 16.38c-5.35,-0.01 -10.56,-0.02 -15.62,-0.02 -102.2,-0.08 -151.49,-0.12 -356.74,-86.78 -210.64,-88.94 -438.31,12.82 -438.97,13.11l-6.55 -15.04z"/>
  <polygon class="fil14" points="11037.75,6676.25 10679.32,7657.16 10617.64,7634.8 10976.07,6653.89 "/>
  <polygon class="fil14" points="12052.8,6765.54 11741.91,7746.46 11679.2,7726.66 11990.08,6745.75 "/>
 </g>
</svg>
